name D:\school\WTK\thesis\model\3dpredictsim\Results\batch_windlass\Pog_s1_tmt_bCst_d05_k500_WL20_ig24_pas.mot
datacolumns 128
datarows 4
range 0.54175727 0.57426271
endheader
time	pelvis_tilt	pelvis_list	pelvis_rotation	pelvis_tx	pelvis_ty	pelvis_tz	hip_flexion_l	hip_adduction_l	hip_rotation_l	hip_flexion_r	hip_adduction_r	hip_rotation_r	knee_angle_l	knee_angle_r	ankle_angle_l	ankle_angle_r	subtalar_angle_l	subtalar_angle_r	tmt_angle_l	tmt_angle_r	mtp_angle_l	mtp_angle_r	lumbar_extension	lumbar_bending	lumbar_rotation	arm_flex_l	arm_add_l	arm_rot_l	arm_flex_r	arm_add_r	arm_rot_r	elbow_flex_l	elbow_flex_r	pro_sup_l	pro_sup_r	glut_med1_l/activation	glut_med2_l/activation	glut_med3_l/activation	glut_min1_l/activation	glut_min2_l/activation	glut_min3_l/activation	semimem_l/activation	semiten_l/activation	bifemlh_l/activation	bifemsh_l/activation	sar_l/activation	add_long_l/activation	add_brev_l/activation	add_mag1_l/activation	add_mag2_l/activation	add_mag3_l/activation	tfl_l/activation	pect_l/activation	grac_l/activation	glut_max1_l/activation	glut_max2_l/activation	glut_max3_l/activation	iliacus_l/activation	psoas_l/activation	quad_fem_l/activation	gem_l/activation	peri_l/activation	rect_fem_l/activation	vas_med_l/activation	vas_int_l/activation	vas_lat_l/activation	med_gas_l/activation	lat_gas_l/activation	soleus_l/activation	tib_post_l/activation	flex_dig_l/activation	flex_hal_l/activation	tib_ant_l/activation	per_brev_l/activation	per_long_l/activation	per_tert_l/activation	ext_dig_l/activation	ext_hal_l/activation	ercspn_l/activation	intobl_l/activation	extobl_l/activation	glut_med1_r/activation	glut_med2_r/activation	glut_med3_r/activation	glut_min1_r/activation	glut_min2_r/activation	glut_min3_r/activation	semimem_r/activation	semiten_r/activation	bifemlh_r/activation	bifemsh_r/activation	sar_r/activation	add_long_r/activation	add_brev_r/activation	add_mag1_r/activation	add_mag2_r/activation	add_mag3_r/activation	tfl_r/activation	pect_r/activation	grac_r/activation	glut_max1_r/activation	glut_max2_r/activation	glut_max3_r/activation	iliacus_r/activation	psoas_r/activation	quad_fem_r/activation	gem_r/activation	peri_r/activation	rect_fem_r/activation	vas_med_r/activation	vas_int_r/activation	vas_lat_r/activation	med_gas_r/activation	lat_gas_r/activation	soleus_r/activation	tib_post_r/activation	flex_dig_r/activation	flex_hal_r/activation	tib_ant_r/activation	per_brev_r/activation	per_long_r/activation	per_tert_r/activation	ext_dig_r/activation	ext_hal_r/activation	ercspn_r/activation	intobl_r/activation	extobl_r/activation	
          0.54175727	         -2.91391332	          1.53294095	         -6.18610594	          0.67719659	          0.85606113	          0.00259996	         31.76494957	          2.58188930	         -2.47377472	        -18.18423569	         -1.47163561	          8.82072950	        -19.20466456	        -10.72251859	         -1.69155730	         -2.33774651	         -2.89685574	         12.08371279	         -0.08747401	         -4.33001578	          0.65586161	         28.53866527	         -1.02530774	          0.05750476	          1.84175266	        -10.11640036	        -13.66827260	          5.79981515	          3.89100039	        -13.48868705	         14.92376734	         19.67377838	         37.65100128	         86.51662706	         86.51662706	          0.05000150	          0.05000071	          0.05000137	          0.05000073	          0.05000087	          0.05000147	          0.05902929	          0.05902923	          0.21243697	          0.05010509	          0.05000133	          0.11467374	          0.18767415	          0.13042902	          0.15660018	          0.11905894	          0.05000069	          0.05790717	          0.05912592	          0.05000114	          0.11340516	          0.12118302	          0.05902917	          0.06385425	          0.25473876	          0.05010004	          0.05000065	          0.05000017	          0.15128693	          0.15542341	          0.12957775	          0.05902942	          0.05902939	          0.05902929	          0.05000002	          0.05000079	          0.05000156	          0.44106778	          0.26942509	          0.15175783	          0.38375143	          0.58411378	          0.05000333	          0.05000005	          0.09977772	          0.09976724	          0.24764862	          0.08118682	          0.05000008	          0.27410645	          0.17060786	          0.08228269	          0.05000204	          0.05000026	          0.05000019	          0.06474123	          0.07999592	          0.16203651	          0.07583481	          0.05000242	          0.05000237	          0.05000067	          0.26366162	          0.10069507	          0.05000097	          0.05000245	          0.05000159	          0.05000122	          0.33069552	          0.54501974	          0.05000020	          0.05000056	          0.05000009	          0.20643529	          0.12568303	          0.12385061	          0.07956551	          0.26502284	          0.34148140	          0.22501483	          0.18580099	          0.18531878	          0.25132920	          0.05000005	          0.10228150	          0.16259100	          0.05000024	          0.05000018	          0.05000023	          0.05000001	          0.05000018	          0.05043536	
          0.55259242	         -2.89734515	          1.64964124	         -6.43731733	          0.69413543	          0.85495238	          0.00239081	         31.10800033	          3.04510333	         -2.21730694	        -17.84011067	         -1.78041221	          8.58679852	        -19.20838322	        -12.92079418	         -2.10551893	         -3.36948006	         -3.64054673	         13.15675796	         -0.10898334	         -5.04008946	          0.80566867	         29.36772633	         -0.78876181	         -0.20328326	          1.91160391	        -11.17879636	        -13.66417960	          5.61660245	          3.55107367	        -13.52925673	         15.25604617	         19.56178350	         38.66424661	         86.51662706	         86.51662706	          0.05000006	          0.05000014	          0.05000109	          0.05000011	          0.05000015	          0.05000020	          0.05000006	          0.05000011	          0.17994208	          0.05000013	          0.05002285	          0.09713314	          0.15896747	          0.36317223	          0.26808557	          0.11701432	          0.05000030	          0.05000509	          0.05008215	          0.05902709	          0.12839937	          0.13683067	          0.05000030	          0.05510746	          0.51127056	          0.08227107	          0.05646737	          0.06968912	          0.26425321	          0.25725691	          0.21975867	          0.05000011	          0.05000010	          0.05000000	          0.05000038	          0.05002602	          0.05000034	          0.60129006	          0.22821309	          0.12854454	          0.50215407	          0.62485254	          0.23313589	          0.05000001	          0.08451544	          0.08450657	          0.20976764	          0.06876831	          0.05000020	          0.23217847	          0.14451127	          0.06969656	          0.05000241	          0.05000015	          0.05000022	          0.05483827	          0.06775971	          0.23053067	          0.25199559	          0.19850109	          0.05004539	          0.13531101	          0.22333144	          0.09714918	          0.05000064	          0.05000123	          0.05000083	          0.05000079	          0.28011143	          0.46931967	          0.05000019	          0.05000292	          0.05902944	          0.17485838	          0.10645891	          0.13536556	          0.13361893	          0.22448420	          0.28924744	          0.19059592	          0.15738038	          0.15697203	          0.21288527	          0.11554211	          0.08663646	          0.13772077	          0.05000030	          0.14281854	          0.05000171	          0.05273749	          0.06968914	          0.05902810	
          0.56342756	         -2.87644220	          1.77746143	         -6.66054010	          0.71124879	          0.85364257	          0.00220515	         30.28074962	          3.46663153	         -1.87054658	        -17.38566149	         -2.07581658	          8.34626132	        -19.64430583	        -15.32915649	         -2.24924981	         -4.40623690	         -4.44923203	         14.15159695	         -0.31081778	         -5.59025885	          0.94023513	         29.50920675	         -0.54028090	         -0.48224818	          1.96750927	        -12.21340781	        -13.67431207	          5.54098424	          3.15117060	        -13.57587318	         15.52644122	         19.40013887	         39.67424456	         86.51662706	         86.51662706	          0.32638263	          0.33611075	          0.39997529	          0.18410579	          0.05000104	          0.37722301	          0.08768459	          0.09887427	          0.15897524	          0.05000010	          0.05000026	          0.08227558	          0.23766679	          0.30762056	          0.23646007	          0.16794600	          0.05000025	          0.06966643	          0.12302927	          0.05000010	          0.18781469	          0.15685073	          0.05902887	          0.05000059	          0.43306520	          0.06968676	          0.22797854	          0.05902928	          0.26659867	          0.27153586	          0.23030466	          0.05902929	          0.05902930	          0.05902929	          0.05000011	          0.05000026	          0.05000212	          0.55257418	          0.19330499	          0.10888201	          0.42534336	          0.57527759	          0.19747491	          0.05000042	          0.07158776	          0.07158021	          0.23187633	          0.05824942	          0.05000044	          0.19666393	          0.12240650	          0.05903565	          0.05000665	          0.05007606	          0.05902924	          0.05000009	          0.05739517	          0.19867608	          0.34091024	          0.16813814	          0.06118134	          0.11461409	          0.22571044	          0.08229047	          0.05902907	          0.05296143	          0.05902843	          0.05902980	          0.23726483	          0.43011167	          0.05902929	          0.05000562	          0.05000021	          0.14811156	          0.09017470	          0.11465970	          0.11318023	          0.19014646	          0.24500334	          0.16144183	          0.13330708	          0.13296129	          0.18032186	          0.20796259	          0.13055524	          0.14430201	          0.27535730	          0.23657478	          0.12414813	          0.08715870	          0.05902930	          0.05000011	
          0.57426271	         -2.85429960	          1.90931988	         -6.85241206	          0.72826575	          0.85225451	          0.00201247	         29.31379883	          3.86664098	         -1.50467438	        -16.78075692	         -2.34873438	          8.11128581	        -20.03287215	        -17.98721119	         -2.17175921	         -5.38837776	         -5.29134694	         15.03088488	         -0.47165934	         -5.75165031	          1.08798164	         28.45954012	         -0.30337835	         -0.76610999	          2.01187640	        -13.15483920	        -13.69118675	          5.59156727	          2.74341573	        -13.62599594	         15.75682258	         19.14553368	         40.63260182	         86.51662706	         86.51662706	          0.41632457	          0.50468512	          0.56434492	          0.29472320	          0.37867523	          0.37755321	          0.07427220	          0.10680876	          0.13465796	          0.06968905	          0.05000056	          0.06969050	          0.20131263	          0.26056619	          0.20029121	          0.17286289	          0.05000023	          0.05901033	          0.10421068	          0.30078930	          0.25370338	          0.17824189	          0.05000004	          0.05000005	          0.36682237	          0.05902932	          0.19310874	          0.05000003	          0.33661583	          0.34663757	          0.29223610	          0.05000002	          0.05000005	          0.05000001	          0.13772716	          0.05856702	          0.05000082	          0.68170149	          0.16373653	          0.09222712	          0.36061231	          0.58676365	          0.39769118	          0.06873434	          0.06968914	          0.06063110	          0.19640802	          0.05000018	          0.05000006	          0.18229496	          0.10368298	          0.05000553	          0.05040171	          0.05000025	          0.05000036	          0.05000034	          0.05903088	          0.18734862	          0.28876374	          0.14241938	          0.05182314	          0.09708259	          0.27861773	          0.06970356	          0.05000060	          0.05000108	          0.05000081	          0.05000073	          0.20097219	          0.39399305	          0.05000010	          0.05000041	          0.05000023	          0.12545601	          0.07638136	          0.09712107	          0.09586790	          0.16106112	          0.20752696	          0.13674723	          0.11291732	          0.11262345	          0.15274006	          0.18192175	          0.11138445	          0.12225398	          0.23323805	          0.23862246	          0.10515819	          0.12285579	          0.05000002	          0.05000004	
